# 3ds Max Wavefront OBJ Exporter v0.97b - (c)2007 guruware
# File Created: 30.05.2016 20:32:04

#
# object Box001
#

v  -74.505707 -7.631813 -40.444935
v  66.077332 -7.631813 -40.444939
v  -42.123894 42.890102 -35.835613
v  26.234909 42.890102 -35.835613
v  -74.505707 -7.631826 39.949364
v  66.077332 -7.631824 39.949364
v  -42.123894 42.890095 35.340065
v  26.234909 42.890095 35.340065
v  -27.208076 42.890102 -35.835613
v  11.319094 42.890102 -35.835613
v  30.959213 -7.631813 -40.444939
v  -38.078739 -7.631813 -40.444935
v  -38.078739 -7.631826 39.949364
v  30.959213 -7.631826 39.949364
v  11.319094 42.890095 35.340065
v  -27.208076 42.890095 35.340065
v  -29.703079 -34.771034 -40.444935
v  22.583551 -34.771034 -40.444939
v  22.583551 -34.771046 39.949364
v  -29.703079 -34.771042 39.949364
v  -60.391155 15.396303 39.949371
v  -34.931046 12.258209 39.949371
v  27.811520 12.258209 39.949371
v  61.607430 12.258211 39.949371
v  61.607430 12.258220 -40.444931
v  27.811520 12.258220 -40.444931
v  -34.931046 12.258220 -40.444927
v  -60.391155 15.396317 -40.444931
v  -94.964462 15.396317 -40.444931
v  -103.297577 -7.631813 -40.444935
v  -103.297577 -7.631826 39.949364
v  -94.964462 15.396303 39.949371
v  -79.565735 -34.826176 -40.444946
v  -79.565735 -34.826199 39.949364
v  -100.041634 -34.826191 37.743942
v  -100.041634 -34.826176 -38.239517
v  91.577988 12.258211 39.949371
v  103.297569 -7.631824 39.949364
v  103.297569 -7.631813 -40.444939
v  91.577988 12.258220 -40.444931
v  72.443375 -34.655540 39.949364
v  72.443375 -34.655521 -40.444942
v  99.911102 -34.655525 -36.578453
v  99.911102 -34.655537 36.082878
v  68.568970 -28.569611 -42.153236
v  67.070534 -21.036472 -42.153236
v  62.803352 -14.650185 -42.153233
v  56.417068 -10.383005 -42.153233
v  48.883926 -8.884571 -42.153233
v  41.350784 -10.383005 -42.153233
v  34.964500 -14.650185 -42.153233
v  30.697319 -21.036472 -42.153236
v  29.198887 -28.569607 -42.153236
v  30.697319 -36.102745 -42.153236
v  34.964497 -42.489033 -42.153240
v  41.350784 -46.756218 -42.153240
v  48.883926 -48.254646 -42.153240
v  56.417068 -46.756218 -42.153240
v  62.803360 -42.489029 -42.153240
v  67.070534 -36.102741 -42.153236
v  68.568970 -28.569614 -26.405205
v  67.070534 -21.036476 -26.405205
v  62.803352 -14.650188 -26.405203
v  56.417068 -10.383007 -26.405201
v  48.883926 -8.884573 -26.405201
v  41.350784 -10.383007 -26.405201
v  34.964500 -14.650188 -26.405203
v  30.697319 -21.036476 -26.405205
v  29.198887 -28.569611 -26.405205
v  30.697319 -36.102749 -26.405207
v  34.964497 -42.489037 -26.405209
v  41.350784 -46.756218 -26.405209
v  48.883926 -48.254646 -26.405209
v  56.417068 -46.756218 -26.405209
v  62.803360 -42.489033 -26.405209
v  67.070534 -36.102745 -26.405207
v  68.568970 -28.569611 26.447205
v  67.070534 -21.036472 26.447205
v  67.070534 -21.036480 42.195244
v  68.568970 -28.569618 42.195236
v  62.803352 -14.650188 26.447205
v  62.803352 -14.650192 42.195244
v  56.417068 -10.383007 26.447205
v  56.417068 -10.383007 42.195244
v  48.883926 -8.884573 26.447205
v  48.883926 -8.884573 42.195244
v  41.350784 -10.383007 26.447205
v  41.350784 -10.383007 42.195244
v  34.964500 -14.650188 26.447205
v  34.964500 -14.650192 42.195244
v  30.697319 -21.036472 26.447205
v  30.697319 -21.036480 42.195244
v  29.198887 -28.569607 26.447205
v  29.198887 -28.569614 42.195236
v  30.697319 -36.102745 26.447205
v  30.697319 -36.102753 42.195236
v  34.964497 -42.489033 26.447205
v  34.964497 -42.489040 42.195236
v  41.350784 -46.756218 26.447205
v  41.350784 -46.756218 42.195236
v  48.883926 -48.254646 26.447205
v  48.883926 -48.254646 42.195236
v  56.417068 -46.756218 26.447205
v  56.417068 -46.756218 42.195236
v  62.803360 -42.489033 26.447205
v  62.803360 -42.489037 42.195236
v  67.070534 -36.102741 26.447205
v  67.070534 -36.102749 42.195236
v  -35.106369 -28.569611 -42.153236
v  -36.604805 -21.036472 -42.153236
v  -36.604805 -21.036480 -26.405205
v  -35.106369 -28.569618 -26.405205
v  -40.871986 -14.650185 -42.153233
v  -40.871986 -14.650192 -26.405203
v  -47.258270 -10.383007 -42.153233
v  -47.258270 -10.383007 -26.405201
v  -54.791412 -8.884573 -42.153233
v  -54.791412 -8.884573 -26.405201
v  -62.324554 -10.383007 -42.153233
v  -62.324554 -10.383007 -26.405201
v  -68.710838 -14.650185 -42.153233
v  -68.710838 -14.650192 -26.405203
v  -72.978020 -21.036472 -42.153236
v  -72.978020 -21.036480 -26.405205
v  -74.476456 -28.569607 -42.153236
v  -74.476456 -28.569614 -26.405205
v  -72.978020 -36.102745 -42.153236
v  -72.978020 -36.102753 -26.405207
v  -68.710846 -42.489033 -42.153240
v  -68.710846 -42.489040 -26.405209
v  -62.324554 -46.756218 -42.153240
v  -62.324554 -46.756218 -26.405209
v  -54.791412 -48.254646 -42.153240
v  -54.791412 -48.254646 -26.405209
v  -47.258270 -46.756218 -42.153240
v  -47.258270 -46.756218 -26.405209
v  -40.871979 -42.489029 -42.153240
v  -40.871979 -42.489037 -26.405209
v  -36.604805 -36.102741 -42.153236
v  -36.604805 -36.102749 -26.405207
v  -35.106369 -28.569611 26.447205
v  -36.604805 -21.036472 26.447205
v  -36.604805 -21.036484 42.195244
v  -35.106369 -28.569622 42.195236
v  -40.871986 -14.650188 26.447205
v  -40.871986 -14.650196 42.195244
v  -47.258270 -10.383009 26.447205
v  -47.258270 -10.383007 42.195244
v  -54.791412 -8.884575 26.447205
v  -54.791412 -8.884573 42.195244
v  -62.324554 -10.383009 26.447205
v  -62.324554 -10.383007 42.195244
v  -68.710838 -14.650188 26.447205
v  -68.710838 -14.650196 42.195244
v  -72.978020 -21.036472 26.447205
v  -72.978020 -21.036484 42.195244
v  -74.476456 -28.569607 26.447205
v  -74.476456 -28.569618 42.195236
v  -72.978020 -36.102745 26.447205
v  -72.978020 -36.102757 42.195236
v  -68.710846 -42.489033 26.447205
v  -68.710846 -42.489044 42.195236
v  -62.324554 -46.756218 26.447205
v  -62.324554 -46.756218 42.195236
v  -54.791412 -48.254646 26.447205
v  -54.791412 -48.254646 42.195236
v  -47.258270 -46.756218 26.447205
v  -47.258270 -46.756218 42.195236
v  -40.871979 -42.489033 26.447205
v  -40.871979 -42.489040 42.195236
v  -36.604805 -36.102741 26.447205
v  -36.604805 -36.102753 42.195236
# 172 vertices

vn -0.000000 0.148799 -0.988867
vn -0.000000 0.074608 -0.997213
vn 0.003678 0.072558 -0.997357
vn 0.000000 0.148799 -0.988867
vn 0.000000 -0.000000 1.000000
vn -0.000000 0.074607 0.997213
vn 0.003678 0.072558 0.997357
vn -0.000000 -1.000000 -0.000000
vn 0.000000 -1.000000 -0.000000
vn 0.861564 0.507649 0.000000
vn 0.975916 0.218148 0.000000
vn 0.000000 1.000000 0.000000
vn -0.832915 0.553401 0.000000
vn 0.000000 0.027767 -0.999614
vn -0.000000 0.000000 -1.000000
vn 0.000000 0.000000 -1.000000
vn 0.005091 0.041306 -0.999134
vn -0.000000 0.027767 0.999614
vn 0.007092 0.150423 0.988596
vn 0.005091 0.041305 0.999134
vn 0.000000 0.148799 0.988867
vn 0.359888 0.932996 0.000000
vn -0.000000 -0.000000 -1.000000
vn 0.955530 -0.294894 -0.000000
vn -0.955530 -0.294894 -0.000000
vn 0.338029 0.941136 0.000000
vn -0.992778 0.119967 0.000000
vn -0.940327 0.340273 0.000000
vn 0.020856 -0.016556 -0.999645
vn 0.007092 0.150424 -0.988596
vn -0.000000 0.148799 0.988867
vn -0.013544 -0.012093 0.999835
vn -0.024036 -0.020975 -0.999491
vn 0.000000 -0.043903 0.999036
vn 0.983126 -0.182929 -0.000000
vn -0.051899 -0.032213 0.998133
vn -0.107068 0.019922 0.994052
vn -0.992909 -0.118880 -0.000000
vn -0.052135 -0.045497 -0.997603
vn -0.106625 -0.093048 -0.989936
vn 0.040892 -0.046689 0.998072
vn 0.000000 -0.082674 -0.996577
vn -0.973357 -0.229296 -0.000000
vn 0.055780 -0.072639 -0.995797
vn 0.139316 0.032819 -0.989704
vn 0.992239 -0.124342 -0.000000
vn 0.055747 -0.063649 0.996414
vn 0.137658 -0.157171 0.977930
vn 1.000000 -0.000000 -0.000000
vn 0.923879 0.382684 0.000000
vn 0.707107 0.707107 0.000000
vn 0.382683 0.923880 0.000000
vn -0.000000 1.000000 0.000000
vn -0.382683 0.923880 0.000000
vn -0.707107 0.707107 0.000000
vn -0.923880 0.382683 0.000000
vn -1.000000 0.000000 0.000000
vn -0.923880 -0.382683 -0.000000
vn -0.707107 -0.707106 -0.000000
vn -0.382683 -0.923880 -0.000000
vn 0.382683 -0.923880 -0.000000
vn 0.707107 -0.707106 -0.000000
vn 0.923880 -0.382683 -0.000000
vn 0.382684 0.923880 0.000000
vn 0.382684 0.923879 0.000000
vn -0.382684 0.923880 0.000000
vn -0.382684 0.923879 0.000000
vn -0.923880 0.382684 0.000000
vn -0.707107 -0.707107 -0.000000
vn -0.382683 -0.923880 0.000000
vn 0.000000 -1.000000 0.000000
vn -0.000000 -1.000000 0.000000
vn 0.382683 -0.923880 0.000000
vn 0.707107 -0.707106 0.000000
vn -0.000000 -0.000001 1.000000
vn -0.000000 -0.000000 1.000000
vn -0.000003 -0.000001 1.000000
vn -0.000001 -0.000001 1.000000
vn 0.000003 -0.000001 1.000000
vn 0.923880 0.382684 0.000000
vn -0.923879 0.382684 0.000000
vn 0.382683 0.923880 -0.000000
vn -0.000000 1.000000 -0.000000
vn 0.000000 1.000000 -0.000000
vn -0.382684 0.923879 -0.000000
vn 0.707107 -0.707107 -0.000000
# 86 vertex normals

vt 0.291966 0.746333 0.000000
vt 0.244049 0.656057 0.000000
vt 0.426902 0.656234 0.000000
vt 0.404211 0.746421 0.000000
vt 0.415587 0.843525 0.000000
vt 0.406229 0.901462 0.000000
vt 0.223415 0.901309 0.000000
vt 0.214373 0.843433 0.000000
vt 0.498996 0.010977 0.000000
vt 0.498992 0.248625 0.000000
vt 0.348463 0.248617 0.000000
vt 0.348467 0.010970 0.000000
vt 0.894220 0.412312 0.000000
vt 0.660013 0.412311 0.000000
vt 0.660013 0.345057 0.000000
vt 0.894220 0.345058 0.000000
vt 0.264262 0.486844 0.000000
vt 0.264262 0.279168 0.000000
vt 0.376250 0.279166 0.000000
vt 0.376250 0.486843 0.000000
vt 0.125096 0.500298 0.000000
vt 0.125094 0.265723 0.000000
vt 0.221128 0.279170 0.000000
vt 0.221130 0.486847 0.000000
vt 0.248460 0.746300 0.000000
vt 0.145511 0.655842 0.000000
vt 0.436191 0.598325 0.000000
vt 0.542407 0.598430 0.000000
vt 0.501076 0.665443 0.000000
vt 0.518100 0.843905 0.000000
vt 0.504672 0.901891 0.000000
vt 0.202415 0.991615 0.000000
vt 0.149188 0.910418 0.000000
vt 0.245834 0.991575 0.000000
vt 0.679823 0.010992 0.000000
vt 0.679785 0.248645 0.000000
vt 0.579141 0.248634 0.000000
vt 0.579152 0.010985 0.000000
vt 0.163768 0.248604 0.000000
vt 0.163808 0.010951 0.000000
vt 0.268319 0.010962 0.000000
vt 0.268308 0.248610 0.000000
vt 0.419383 0.279165 0.000000
vt 0.419383 0.486842 0.000000
vt 0.235022 0.598214 0.000000
vt 0.259511 0.519152 0.000000
vt 0.411839 0.519253 0.000000
vt 0.238848 0.764372 0.000000
vt 0.391196 0.764461 0.000000
vt 0.357976 0.991553 0.000000
vt 0.555634 0.265715 0.000000
vt 0.555634 0.500290 0.000000
vt 0.656226 0.508421 0.000000
vt 0.890433 0.508422 0.000000
vt 0.890432 0.579766 0.000000
vt 0.656226 0.579765 0.000000
vt 0.132768 0.597893 0.000000
vt 0.447605 0.746478 0.000000
vt 0.401236 0.991560 0.000000
vt 0.108231 0.843288 0.000000
vt 0.626321 0.598851 0.000000
vt 0.601734 0.665811 0.000000
vt 0.084241 0.010935 0.000000
vt 0.084095 0.248587 0.000000
vt 0.024337 0.241972 0.000000
vt 0.024748 0.017378 0.000000
vt 0.048464 0.910230 0.000000
vt 0.024337 0.843047 0.000000
vt 0.024338 0.500299 0.000000
vt 0.024337 0.265724 0.000000
vt 0.034014 0.763529 0.000000
vt 0.094018 0.764064 0.000000
vt 0.662651 0.428632 0.000000
vt 0.884008 0.428633 0.000000
vt 0.557471 0.519156 0.000000
vt 0.617529 0.519315 0.000000
vt 0.626577 0.845294 0.000000
vt 0.591801 0.902742 0.000000
vt 0.759659 0.248664 0.000000
vt 0.759796 0.011009 0.000000
vt 0.840206 0.022561 0.000000
vt 0.839832 0.237331 0.000000
vt 0.058141 0.655334 0.000000
vt 0.024337 0.596996 0.000000
vt 0.642962 0.265716 0.000000
vt 0.642961 0.500291 0.000000
vt 0.034739 0.517350 0.000000
vt 0.115528 0.519111 0.000000
vt 0.671278 0.265715 0.000000
vt 0.882957 0.265716 0.000000
vt 0.537413 0.765131 0.000000
vt 0.618346 0.765699 0.000000
vt 0.761846 0.879522 0.000000
vt 0.761846 0.901897 0.000000
vt 0.715968 0.901897 0.000000
vt 0.715969 0.879521 0.000000
vt 0.761846 0.924273 0.000000
vt 0.715968 0.924273 0.000000
vt 0.761846 0.946649 0.000000
vt 0.715968 0.946649 0.000000
vt 0.761846 0.969024 0.000000
vt 0.715968 0.969024 0.000000
vt 0.761848 0.611014 0.000000
vt 0.761848 0.633390 0.000000
vt 0.715970 0.633390 0.000000
vt 0.715970 0.611014 0.000000
vt 0.761848 0.655765 0.000000
vt 0.715970 0.655765 0.000000
vt 0.761848 0.678141 0.000000
vt 0.715970 0.678141 0.000000
vt 0.761848 0.700517 0.000000
vt 0.715970 0.700516 0.000000
vt 0.761847 0.722892 0.000000
vt 0.715970 0.722892 0.000000
vt 0.761847 0.745268 0.000000
vt 0.715969 0.745268 0.000000
vt 0.761847 0.767643 0.000000
vt 0.715969 0.767643 0.000000
vt 0.761847 0.790019 0.000000
vt 0.715969 0.790019 0.000000
vt 0.761847 0.812395 0.000000
vt 0.715969 0.812395 0.000000
vt 0.761847 0.834770 0.000000
vt 0.715969 0.834770 0.000000
vt 0.761846 0.857146 0.000000
vt 0.715969 0.857146 0.000000
vt 0.824776 0.675455 0.000000
vt 0.843381 0.663023 0.000000
vt 0.865327 0.658658 0.000000
vt 0.807980 0.716005 0.000000
vt 0.887273 0.663023 0.000000
vt 0.905877 0.675455 0.000000
vt 0.922674 0.716005 0.000000
vt 0.918308 0.694059 0.000000
vt 0.918308 0.737951 0.000000
vt 0.905877 0.756555 0.000000
vt 0.865327 0.773352 0.000000
vt 0.887273 0.768987 0.000000
vt 0.843381 0.768987 0.000000
vt 0.824776 0.756555 0.000000
vt 0.812345 0.737951 0.000000
vt 0.812345 0.694059 0.000000
vt 0.914292 0.920803 0.000000
vt 0.901861 0.939408 0.000000
vt 0.883256 0.951839 0.000000
vt 0.914292 0.876912 0.000000
vt 0.861311 0.956205 0.000000
vt 0.839365 0.951839 0.000000
vt 0.808329 0.920803 0.000000
vt 0.820760 0.939408 0.000000
vt 0.803963 0.898858 0.000000
vt 0.808329 0.876912 0.000000
vt 0.839365 0.845876 0.000000
vt 0.820760 0.858307 0.000000
vt 0.861311 0.841511 0.000000
vt 0.883256 0.845876 0.000000
vt 0.901861 0.858307 0.000000
vt 0.918657 0.898858 0.000000
# 158 texture coords

g Box001
s 1
f -163/-158/-86 -147/-157/-85 -146/-156/-84 -164/-155/-83 
f -159/-154/-82 -150/-153/-81 -151/-152/-80 -160/-151/-82 
s 2
f -155/-150/-79 -154/-149/-79 -153/-148/-79 -156/-147/-78 
f -133/-146/-77 -136/-145/-77 -135/-144/-76 -134/-143/-76 
s 4
f -164/-142/-75 -157/-141/-75 -158/-140/-75 -163/-139/-75 
s 2
f -145/-138/-74 -152/-137/-74 -166/-136/-74 -170/-135/-74 
s 1
f -169/-134/-83 -148/-133/-73 -147/-157/-85 -163/-158/-86 
f -161/-132/-72 -172/-131/-71 -145/-130/-70 -146/-156/-84 
f -159/-154/-82 -167/-129/-82 -149/-128/-69 -150/-153/-81 
f -166/-127/-68 -152/-126/-67 -151/-152/-80 -157/-125/-66 
s 2
f -171/-124/-78 -167/-123/-78 -159/-122/-78 -162/-121/-78 
f -168/-120/-78 -172/-119/-78 -161/-118/-78 -160/-117/-78 
s 4
f -170/-135/-75 -166/-136/-75 -157/-141/-75 -164/-142/-75 
f -165/-116/-65 -169/-115/-65 -163/-139/-75 -158/-140/-75 
s 1
f -161/-132/-72 -162/-114/-72 -155/-113/-72 -156/-112/-64 
s 4
f -162/-121/-63 -159/-122/-63 -154/-149/-63 -155/-150/-63 
s 1
f -159/-154/-82 -160/-151/-82 -153/-111/-82 -154/-110/-82 
s 4
f -160/-117/-62 -161/-118/-62 -156/-147/-62 -153/-148/-62 
s 1
f -162/-114/-72 -161/-132/-72 -146/-156/-84 -147/-157/-85 
f -158/-109/-66 -157/-125/-66 -151/-152/-80 -150/-153/-81 
s 4
f -169/-115/-65 -165/-116/-65 -149/-108/-61 -148/-107/-61 
s 2
f -143/-106/-60 -142/-105/-60 -141/-104/-59 -144/-103/-59 
s 1
f -148/-133/-73 -171/-102/-58 -162/-114/-72 -147/-157/-85 
f -170/-101/-57 -164/-155/-83 -146/-156/-84 -145/-130/-70 
f -165/-100/-56 -158/-109/-66 -150/-153/-81 -149/-128/-69 
f -152/-126/-67 -168/-99/-55 -160/-151/-82 -151/-152/-80 
f -145/-130/-70 -172/-131/-71 -143/-98/-54 -144/-97/-71 
s 4
f -140/-96/-79 -139/-95/-79 -138/-94/-79 -137/-93/-79 
s 1
f -168/-99/-55 -152/-126/-67 -141/-92/-82 -142/-91/-53 
s 4
f -152/-137/-75 -145/-138/-75 -144/-90/-75 -141/-89/-75 
s 8
f -172/-119/-52 -168/-120/-52 -139/-95/-52 -140/-96/-52 
s 1
f -168/-99/-55 -142/-91/-53 -138/-88/-51 -139/-87/-50 
s 2
f -142/-105/-60 -143/-106/-60 -137/-86/-49 -138/-85/-49 
s 1
f -143/-98/-54 -172/-131/-71 -140/-84/-48 -137/-83/-47 
f -149/-128/-69 -167/-129/-82 -135/-82/-46 -136/-81/-82 
s 4
f -132/-80/-78 -131/-79/-79 -130/-78/-79 -129/-77/-78 
s 1
f -171/-102/-58 -148/-133/-73 -133/-76/-71 -134/-75/-45 
s 4
f -148/-107/-61 -149/-108/-61 -136/-74/-75 -133/-73/-75 
s 8
f -167/-123/-44 -171/-124/-44 -131/-79/-44 -132/-80/-44 
s 1
f -171/-102/-58 -134/-75/-45 -130/-72/-43 -131/-71/-42 
s 2
f -134/-143/-76 -135/-144/-76 -129/-70/-41 -130/-69/-41 
s 1
f -135/-82/-46 -167/-129/-82 -132/-68/-40 -129/-67/-39 
f -128/-66/-38 -127/-65/-37 -111/-64/-37 -112/-63/-38 
f -127/-65/-37 -126/-62/-36 -110/-61/-36 -111/-64/-37 
f -126/-62/-36 -125/-60/-35 -109/-59/-35 -110/-61/-36 
f -125/-60/-35 -124/-58/-34 -108/-57/-75 -109/-59/-35 
f -124/-56/-34 -123/-55/-33 -107/-54/-33 -108/-53/-75 
f -123/-55/-33 -122/-52/-32 -106/-51/-32 -107/-54/-33 
f -122/-52/-32 -121/-50/-31 -105/-49/-31 -106/-51/-32 
f -121/-50/-31 -120/-48/-30 -104/-47/-30 -105/-49/-31 
f -120/-48/-30 -119/-46/-29 -103/-45/-29 -104/-47/-30 
f -119/-46/-29 -118/-44/-28 -102/-43/-28 -103/-45/-29 
f -118/-44/-28 -117/-42/-27 -101/-41/-27 -102/-43/-28 
f -117/-42/-27 -116/-40/-78 -100/-39/-79 -101/-41/-27 
f -116/-40/-78 -115/-38/-26 -99/-37/-26 -100/-39/-79 
f -115/-38/-26 -114/-36/-25 -98/-35/-25 -99/-37/-26 
f -114/-36/-25 -113/-34/-24 -97/-33/-24 -98/-35/-25 
f -113/-34/-24 -128/-66/-38 -112/-63/-38 -97/-33/-24 
s 2
f -114/-32/-71 -115/-31/-71 -116/-30/-71 -128/-29/-71 
f -116/-30/-71 -117/-28/-71 -118/-27/-71 -120/-26/-71 
f -118/-27/-71 -119/-25/-71 -120/-26/-71 
f -120/-26/-71 -121/-24/-71 -122/-23/-71 -124/-22/-71 
f -122/-23/-71 -123/-21/-71 -124/-22/-71 
f -124/-22/-71 -125/-20/-71 -126/-19/-71 -128/-29/-71 
f -126/-19/-71 -127/-18/-71 -128/-29/-71 
f -120/-26/-71 -124/-22/-71 -128/-29/-71 -116/-30/-71 
f -113/-17/-71 -114/-32/-71 -128/-29/-71 
f -111/-16/-82 -110/-15/-82 -109/-14/-82 -97/-13/-82 
f -109/-14/-82 -108/-12/-82 -107/-11/-82 -105/-10/-82 
f -107/-11/-82 -106/-9/-82 -105/-10/-82 
f -105/-10/-82 -104/-8/-82 -103/-7/-82 -101/-6/-82 
f -103/-7/-82 -102/-5/-82 -101/-6/-82 
f -101/-6/-82 -100/-4/-82 -99/-3/-82 -97/-13/-82 
f -99/-3/-82 -98/-2/-82 -97/-13/-82 
f -105/-10/-82 -101/-6/-82 -97/-13/-82 -109/-14/-82 
f -112/-1/-82 -111/-16/-82 -97/-13/-82 
s 1
f -96/-66/-38 -95/-65/-37 -94/-64/-37 -93/-63/-38 
f -95/-65/-37 -92/-62/-36 -91/-61/-36 -94/-64/-37 
f -92/-62/-36 -90/-60/-23 -89/-59/-22 -91/-61/-36 
f -90/-60/-23 -88/-58/-34 -87/-57/-75 -89/-59/-22 
f -88/-56/-34 -86/-55/-21 -85/-54/-20 -87/-53/-75 
f -86/-55/-21 -84/-52/-32 -83/-51/-32 -85/-54/-20 
f -84/-52/-32 -82/-50/-19 -81/-49/-31 -83/-51/-32 
f -82/-50/-19 -80/-48/-30 -79/-47/-30 -81/-49/-31 
f -80/-48/-30 -78/-46/-29 -77/-45/-29 -79/-47/-30 
f -78/-46/-29 -76/-44/-28 -75/-43/-18 -77/-45/-29 
f -76/-44/-28 -74/-42/-17 -73/-41/-17 -75/-43/-18 
f -74/-42/-17 -72/-40/-16 -71/-39/-15 -73/-41/-17 
f -72/-40/-16 -70/-38/-14 -69/-37/-14 -71/-39/-15 
f -70/-38/-14 -68/-36/-25 -67/-35/-13 -69/-37/-14 
f -68/-36/-25 -66/-34/-24 -65/-33/-24 -67/-35/-13 
f -66/-34/-24 -96/-66/-38 -93/-63/-38 -65/-33/-24 
s 2
f -68/-32/-71 -70/-31/-71 -72/-30/-71 -96/-29/-71 
f -72/-30/-71 -74/-28/-71 -76/-27/-71 -80/-26/-71 
f -76/-27/-71 -78/-25/-71 -80/-26/-71 
f -80/-26/-71 -82/-24/-71 -84/-23/-71 -88/-22/-71 
f -84/-23/-71 -86/-21/-71 -88/-22/-71 
f -88/-22/-71 -90/-20/-71 -92/-19/-71 -96/-29/-71 
f -92/-19/-71 -95/-18/-71 -96/-29/-71 
f -80/-26/-71 -88/-22/-71 -96/-29/-71 -72/-30/-71 
f -66/-17/-71 -68/-32/-71 -96/-29/-71 
f -94/-16/-12 -91/-15/-82 -89/-14/-11 -65/-13/-82 
f -89/-14/-11 -87/-12/-82 -85/-11/-82 -81/-10/-11 
f -85/-11/-82 -83/-9/-82 -81/-10/-11 
f -81/-10/-11 -79/-8/-10 -77/-7/-9 -73/-6/-11 
f -77/-7/-9 -75/-5/-82 -73/-6/-11 
f -73/-6/-11 -71/-4/-82 -69/-3/-82 -65/-13/-82 
f -69/-3/-82 -67/-2/-82 -65/-13/-82 
f -81/-10/-11 -73/-6/-11 -65/-13/-82 -89/-14/-11 
f -93/-1/-8 -94/-16/-12 -65/-13/-82 
s 1
f -64/-66/-38 -63/-65/-37 -62/-64/-7 -61/-63/-38 
f -63/-65/-37 -60/-62/-36 -59/-61/-36 -62/-64/-7 
f -60/-62/-36 -58/-60/-35 -57/-59/-23 -59/-61/-36 
f -58/-60/-35 -56/-58/-75 -55/-57/-75 -57/-59/-23 
f -56/-56/-75 -54/-55/-33 -53/-54/-20 -55/-53/-75 
f -54/-55/-33 -52/-52/-32 -51/-51/-32 -53/-54/-20 
f -52/-52/-32 -50/-50/-6 -49/-49/-6 -51/-51/-32 
f -50/-50/-6 -48/-48/-30 -47/-47/-30 -49/-49/-6 
f -48/-48/-30 -46/-46/-29 -45/-45/-29 -47/-47/-30 
f -46/-46/-29 -44/-44/-28 -43/-43/-18 -45/-45/-29 
f -44/-44/-28 -42/-42/-27 -41/-41/-27 -43/-43/-18 
f -42/-42/-27 -40/-40/-78 -39/-39/-79 -41/-41/-27 
f -40/-40/-78 -38/-38/-26 -37/-37/-26 -39/-39/-79 
f -38/-38/-26 -36/-36/-25 -35/-35/-25 -37/-37/-26 
f -36/-36/-25 -34/-34/-24 -33/-33/-24 -35/-35/-25 
f -34/-34/-24 -64/-66/-38 -61/-63/-38 -33/-33/-24 
s 2
f -36/-32/-72 -38/-31/-72 -40/-30/-72 -64/-29/-71 
f -40/-30/-72 -42/-28/-71 -44/-27/-71 -48/-26/-72 
f -44/-27/-71 -46/-25/-72 -48/-26/-72 
f -48/-26/-72 -50/-24/-71 -52/-23/-72 -56/-22/-72 
f -52/-23/-72 -54/-21/-72 -56/-22/-72 
f -56/-22/-72 -58/-20/-71 -60/-19/-71 -64/-29/-71 
f -60/-19/-71 -63/-18/-71 -64/-29/-71 
f -48/-26/-72 -56/-22/-72 -64/-29/-71 -40/-30/-72 
f -34/-17/-71 -36/-32/-72 -64/-29/-71 
f -62/-16/-82 -59/-15/-82 -57/-14/-82 -33/-13/-82 
f -57/-14/-82 -55/-12/-82 -53/-11/-82 -49/-10/-82 
f -53/-11/-82 -51/-9/-82 -49/-10/-82 
f -49/-10/-82 -47/-8/-82 -45/-7/-82 -41/-6/-82 
f -45/-7/-82 -43/-5/-82 -41/-6/-82 
f -41/-6/-82 -39/-4/-82 -37/-3/-82 -33/-13/-82 
f -37/-3/-82 -35/-2/-82 -33/-13/-82 
f -49/-10/-82 -41/-6/-82 -33/-13/-82 -57/-14/-82 
f -61/-1/-82 -62/-16/-82 -33/-13/-82 
s 1
f -32/-66/-38 -31/-65/-37 -30/-64/-37 -29/-63/-38 
f -31/-65/-37 -28/-62/-36 -27/-61/-36 -30/-64/-37 
f -28/-62/-36 -26/-60/-5 -25/-59/-22 -27/-61/-36 
f -26/-60/-5 -24/-58/-4 -23/-57/-3 -25/-59/-22 
f -24/-56/-4 -22/-55/-21 -21/-54/-2 -23/-53/-3 
f -22/-55/-21 -20/-52/-32 -19/-51/-32 -21/-54/-2 
f -20/-52/-32 -18/-50/-6 -17/-49/-6 -19/-51/-32 
f -18/-50/-6 -16/-48/-30 -15/-47/-30 -17/-49/-6 
f -16/-48/-30 -14/-46/-29 -13/-45/-29 -15/-47/-30 
f -14/-46/-29 -12/-44/-28 -11/-43/-18 -13/-45/-29 
f -12/-44/-28 -10/-42/-17 -9/-41/-17 -11/-43/-18 
f -10/-42/-17 -8/-40/-16 -7/-39/-15 -9/-41/-17 
f -8/-40/-16 -6/-38/-14 -5/-37/-14 -7/-39/-15 
f -6/-38/-14 -4/-36/-25 -3/-35/-1 -5/-37/-14 
f -4/-36/-25 -2/-34/-24 -1/-33/-24 -3/-35/-1 
f -2/-34/-24 -32/-66/-38 -29/-63/-38 -1/-33/-24 
s 2
f -4/-32/-71 -6/-31/-71 -8/-30/-71 -32/-29/-71 
f -8/-30/-71 -10/-28/-71 -12/-27/-71 -16/-26/-71 
f -12/-27/-71 -14/-25/-71 -16/-26/-71 
f -16/-26/-71 -18/-24/-71 -20/-23/-71 -24/-22/-71 
f -20/-23/-71 -22/-21/-71 -24/-22/-71 
f -24/-22/-71 -26/-20/-71 -28/-19/-71 -32/-29/-71 
f -28/-19/-71 -31/-18/-71 -32/-29/-71 
f -16/-26/-71 -24/-22/-71 -32/-29/-71 -8/-30/-71 
f -2/-17/-71 -4/-32/-71 -32/-29/-71 
f -30/-16/-12 -27/-15/-82 -25/-14/-11 -1/-13/-82 
f -25/-14/-11 -23/-12/-82 -21/-11/-82 -17/-10/-11 
f -21/-11/-82 -19/-9/-82 -17/-10/-11 
f -17/-10/-11 -15/-8/-10 -13/-7/-9 -9/-6/-11 
f -13/-7/-9 -11/-5/-82 -9/-6/-11 
f -9/-6/-11 -7/-4/-82 -5/-3/-82 -1/-13/-82 
f -5/-3/-82 -3/-2/-82 -1/-13/-82 
f -17/-10/-11 -9/-6/-11 -1/-13/-82 -25/-14/-11 
f -29/-1/-8 -30/-16/-12 -1/-13/-82 
# 146 polygons - 32 triangles

